<svg xmlns="http://www.w3.org/2000/svg" viewBox="0 0 841.9 595.3"><g fill="#61DAFB"><path d="M666.3 296.5c0 33.7-15.7 63.9-40.9 84.2 28.1 15.7 48.1 45.9 48.1 80.5 0 50.4-41 91.4-91.4 91.4-23 0-44-7.9-61.1-21.3-23.5 17.9-52.6 29.3-84.8 29.3-32.2 0-61.3-11.4-84.8-29.3-17.1 13.4-38.1 21.3-61.1 21.3-50.4 0-91.4-41-91.4-91.4 0-34.6 20-64.8 48.1-80.5-25.2-20.3-40.9-50.5-40.9-84.2 0-29.2 13-55.2 33.5-73.4-20.5-18.2-33.5-44.2-33.5-73.4 0-33.7 15.7-63.9 40.9-84.2-28.1-15.7-48.1-45.9-48.1-80.5 0-50.4 41-91.4 91.4-91.4 23 0 44 7.9 61.1 21.3 23.5-17.9 52.6-29.3 84.8-29.3 32.2 0 61.3 11.4 84.8 29.3 17.1-13.4 38.1-21.3 61.1-21.3 50.4 0 91.4 41 91.4 91.4 0 34.6-20 64.8-48.1 80.5 25.2 20.3 40.9 50.5 40.9 84.2 0 29.2-13 55.2-33.5 73.4 20.5 18.2 33.5 44.2 33.5 73.4z"/></g></svg>